<svg xmlns="http://www.w3.org/2000/svg" height="500cm" width="500cm">
<line x1="2.725332cm" y1="10.578398cm" x2="2.183407cm" y2="0.000000cm" style="stroke:rgb(255,0,0);stroke-width:1mm" />
<line x1="3.196571cm" y1="21.018704cm" x2="2.725332cm" y2="10.578398cm" style="stroke:rgb(255,0,0);stroke-width:1mm" />
<line x1="3.550000cm" y1="31.268704cm" x2="3.196571cm" y2="21.018704cm" style="stroke:rgb(255,0,0);stroke-width:1mm" />
<line x1="3.832743cm" y1="41.429413cm" x2="3.550000cm" y2="31.268704cm" style="stroke:rgb(255,0,0);stroke-width:1mm" />
<line x1="4.084070cm" y1="51.556604cm" x2="3.832743cm" y2="41.429413cm" style="stroke:rgb(255,0,0);stroke-width:1mm" />
<line x1="4.256858cm" y1="61.616922cm" x2="4.084070cm" y2="51.556604cm" style="stroke:rgb(255,0,0);stroke-width:1mm" />
<line x1="4.429646cm" y1="71.677240cm" x2="4.256858cm" y2="61.616922cm" style="stroke:rgb(255,0,0);stroke-width:1mm" />
<line x1="4.571017cm" y1="81.717659cm" x2="4.429646cm" y2="71.677240cm" style="stroke:rgb(255,0,0);stroke-width:1mm" />
<line x1="4.665265cm" y1="91.735642cm" x2="4.571017cm" y2="81.717659cm" style="stroke:rgb(255,0,0);stroke-width:1mm" />
<line x1="4.712389cm" y1="101.740141cm" x2="4.665265cm" y2="91.735642cm" style="stroke:rgb(255,0,0);stroke-width:1mm" />
<line x1="4.775221cm" y1="111.748138cm" x2="4.712389cm" y2="101.740141cm" style="stroke:rgb(255,0,0);stroke-width:1mm" />
<line x1="4.759513cm" y1="121.748638cm" x2="4.775221cm" y2="111.748138cm" style="stroke:rgb(255,0,0);stroke-width:1mm" />
<line x1="4.680973cm" y1="131.761130cm" x2="4.759513cm" y2="121.748638cm" style="stroke:rgb(255,0,0);stroke-width:1mm" />
<line x1="4.523893cm" y1="143.304527cm" x2="4.680973cm" y2="131.761130cm" style="stroke:rgb(255,0,0);stroke-width:1mm" />
<line x1="4.413938cm" y1="148.353289cm" x2="4.523893cm" y2="143.304527cm" style="stroke:rgb(255,0,0);stroke-width:1mm" />
<line x1="4.272566cm" y1="153.433643cm" x2="4.413938cm" y2="148.353289cm" style="stroke:rgb(255,0,0);stroke-width:1mm" />
<line x1="4.084070cm" y1="158.575627cm" x2="4.272566cm" y2="153.433643cm" style="stroke:rgb(255,0,0);stroke-width:1mm" />
<line x1="3.911283cm" y1="162.244415cm" x2="4.084070cm" y2="158.575627cm" style="stroke:rgb(255,0,0);stroke-width:1mm" />
<line x1="3.707079cm" y1="164.229358cm" x2="3.911283cm" y2="162.244415cm" style="stroke:rgb(255,0,0);stroke-width:1mm" />
<line x1="5.843362cm" y1="164.229358cm" x2="3.707079cm" y2="164.229358cm" style="stroke:rgb(255,0,0);stroke-width:1mm" />
<line x1="5.639159cm" y1="162.244415cm" x2="5.843362cm" y2="164.229358cm" style="stroke:rgb(255,0,0);stroke-width:1mm" />
<line x1="5.466371cm" y1="158.575627cm" x2="5.639159cm" y2="162.244415cm" style="stroke:rgb(255,0,0);stroke-width:1mm" />
<line x1="5.277876cm" y1="153.433643cm" x2="5.466371cm" y2="158.575627cm" style="stroke:rgb(255,0,0);stroke-width:1mm" />
<line x1="5.136504cm" y1="148.353289cm" x2="5.277876cm" y2="153.433643cm" style="stroke:rgb(255,0,0);stroke-width:1mm" />
<line x1="5.026548cm" y1="143.304527cm" x2="5.136504cm" y2="148.353289cm" style="stroke:rgb(255,0,0);stroke-width:1mm" />
<line x1="4.869469cm" y1="131.761130cm" x2="5.026548cm" y2="143.304527cm" style="stroke:rgb(255,0,0);stroke-width:1mm" />
<line x1="4.790929cm" y1="121.748638cm" x2="4.869469cm" y2="131.761130cm" style="stroke:rgb(255,0,0);stroke-width:1mm" />
<line x1="4.775221cm" y1="111.748138cm" x2="4.790929cm" y2="121.748638cm" style="stroke:rgb(255,0,0);stroke-width:1mm" />
<line x1="4.838053cm" y1="101.740141cm" x2="4.775221cm" y2="111.748138cm" style="stroke:rgb(255,0,0);stroke-width:1mm" />
<line x1="4.885177cm" y1="91.735642cm" x2="4.838053cm" y2="101.740141cm" style="stroke:rgb(255,0,0);stroke-width:1mm" />
<line x1="4.979424cm" y1="81.717659cm" x2="4.885177cm" y2="91.735642cm" style="stroke:rgb(255,0,0);stroke-width:1mm" />
<line x1="5.120796cm" y1="71.677240cm" x2="4.979424cm" y2="81.717659cm" style="stroke:rgb(255,0,0);stroke-width:1mm" />
<line x1="5.293584cm" y1="61.616922cm" x2="5.120796cm" y2="71.677240cm" style="stroke:rgb(255,0,0);stroke-width:1mm" />
<line x1="5.466371cm" y1="51.556604cm" x2="5.293584cm" y2="61.616922cm" style="stroke:rgb(255,0,0);stroke-width:1mm" />
<line x1="5.717699cm" y1="41.429413cm" x2="5.466371cm" y2="51.556604cm" style="stroke:rgb(255,0,0);stroke-width:1mm" />
<line x1="6.000442cm" y1="31.268704cm" x2="5.717699cm" y2="41.429413cm" style="stroke:rgb(255,0,0);stroke-width:1mm" />
<line x1="6.353871cm" y1="21.018704cm" x2="6.000442cm" y2="31.268704cm" style="stroke:rgb(255,0,0);stroke-width:1mm" />
<line x1="6.825110cm" y1="10.578398cm" x2="6.353871cm" y2="21.018704cm" style="stroke:rgb(255,0,0);stroke-width:1mm" />
<line x1="7.367035cm" y1="0.000000cm" x2="6.825110cm" y2="10.578398cm" style="stroke:rgb(255,0,0);stroke-width:1mm" />
<line x1="11.733849cm" y1="0.000000cm" x2="7.367035cm" y2="0.000000cm" style="stroke:rgb(255,0,0);stroke-width:1mm" />
<line x1="12.275773cm" y1="10.578398cm" x2="11.733849cm" y2="0.000000cm" style="stroke:rgb(255,0,0);stroke-width:1mm" />
<line x1="12.747012cm" y1="21.018704cm" x2="12.275773cm" y2="10.578398cm" style="stroke:rgb(255,0,0);stroke-width:1mm" />
<line x1="13.100441cm" y1="31.268704cm" x2="12.747012cm" y2="21.018704cm" style="stroke:rgb(255,0,0);stroke-width:1mm" />
<line x1="13.383185cm" y1="41.429413cm" x2="13.100441cm" y2="31.268704cm" style="stroke:rgb(255,0,0);stroke-width:1mm" />
<line x1="13.634512cm" y1="51.556604cm" x2="13.383185cm" y2="41.429413cm" style="stroke:rgb(255,0,0);stroke-width:1mm" />
<line x1="13.807300cm" y1="61.616922cm" x2="13.634512cm" y2="51.556604cm" style="stroke:rgb(255,0,0);stroke-width:1mm" />
<line x1="13.980087cm" y1="71.677240cm" x2="13.807300cm" y2="61.616922cm" style="stroke:rgb(255,0,0);stroke-width:1mm" />
<line x1="14.121459cm" y1="81.717659cm" x2="13.980087cm" y2="71.677240cm" style="stroke:rgb(255,0,0);stroke-width:1mm" />
<line x1="14.215707cm" y1="91.735642cm" x2="14.121459cm" y2="81.717659cm" style="stroke:rgb(255,0,0);stroke-width:1mm" />
<line x1="14.262831cm" y1="101.740141cm" x2="14.215707cm" y2="91.735642cm" style="stroke:rgb(255,0,0);stroke-width:1mm" />
<line x1="14.325663cm" y1="111.748138cm" x2="14.262831cm" y2="101.740141cm" style="stroke:rgb(255,0,0);stroke-width:1mm" />
<line x1="14.309955cm" y1="121.748638cm" x2="14.325663cm" y2="111.748138cm" style="stroke:rgb(255,0,0);stroke-width:1mm" />
<line x1="14.231415cm" y1="131.761130cm" x2="14.309955cm" y2="121.748638cm" style="stroke:rgb(255,0,0);stroke-width:1mm" />
<line x1="14.074335cm" y1="143.304527cm" x2="14.231415cm" y2="131.761130cm" style="stroke:rgb(255,0,0);stroke-width:1mm" />
<line x1="13.964379cm" y1="148.353289cm" x2="14.074335cm" y2="143.304527cm" style="stroke:rgb(255,0,0);stroke-width:1mm" />
<line x1="13.823008cm" y1="153.433643cm" x2="13.964379cm" y2="148.353289cm" style="stroke:rgb(255,0,0);stroke-width:1mm" />
<line x1="13.634512cm" y1="158.575627cm" x2="13.823008cm" y2="153.433643cm" style="stroke:rgb(255,0,0);stroke-width:1mm" />
<line x1="13.461725cm" y1="162.244415cm" x2="13.634512cm" y2="158.575627cm" style="stroke:rgb(255,0,0);stroke-width:1mm" />
<line x1="13.257521cm" y1="164.229358cm" x2="13.461725cm" y2="162.244415cm" style="stroke:rgb(255,0,0);stroke-width:1mm" />
<line x1="15.393804cm" y1="164.229358cm" x2="13.257521cm" y2="164.229358cm" style="stroke:rgb(255,0,0);stroke-width:1mm" />
<line x1="15.189600cm" y1="162.244415cm" x2="15.393804cm" y2="164.229358cm" style="stroke:rgb(255,0,0);stroke-width:1mm" />
<line x1="15.016813cm" y1="158.575627cm" x2="15.189600cm" y2="162.244415cm" style="stroke:rgb(255,0,0);stroke-width:1mm" />
<line x1="14.828317cm" y1="153.433643cm" x2="15.016813cm" y2="158.575627cm" style="stroke:rgb(255,0,0);stroke-width:1mm" />
<line x1="14.686946cm" y1="148.353289cm" x2="14.828317cm" y2="153.433643cm" style="stroke:rgb(255,0,0);stroke-width:1mm" />
<line x1="14.576990cm" y1="143.304527cm" x2="14.686946cm" y2="148.353289cm" style="stroke:rgb(255,0,0);stroke-width:1mm" />
<line x1="14.419910cm" y1="131.761130cm" x2="14.576990cm" y2="143.304527cm" style="stroke:rgb(255,0,0);stroke-width:1mm" />
<line x1="14.341370cm" y1="121.748638cm" x2="14.419910cm" y2="131.761130cm" style="stroke:rgb(255,0,0);stroke-width:1mm" />
<line x1="14.325663cm" y1="111.748138cm" x2="14.341370cm" y2="121.748638cm" style="stroke:rgb(255,0,0);stroke-width:1mm" />
<line x1="14.388494cm" y1="101.740141cm" x2="14.325663cm" y2="111.748138cm" style="stroke:rgb(255,0,0);stroke-width:1mm" />
<line x1="14.435618cm" y1="91.735642cm" x2="14.388494cm" y2="101.740141cm" style="stroke:rgb(255,0,0);stroke-width:1mm" />
<line x1="14.529866cm" y1="81.717659cm" x2="14.435618cm" y2="91.735642cm" style="stroke:rgb(255,0,0);stroke-width:1mm" />
<line x1="14.671238cm" y1="71.677240cm" x2="14.529866cm" y2="81.717659cm" style="stroke:rgb(255,0,0);stroke-width:1mm" />
<line x1="14.844025cm" y1="61.616922cm" x2="14.671238cm" y2="71.677240cm" style="stroke:rgb(255,0,0);stroke-width:1mm" />
<line x1="15.016813cm" y1="51.556604cm" x2="14.844025cm" y2="61.616922cm" style="stroke:rgb(255,0,0);stroke-width:1mm" />
<line x1="15.268140cm" y1="41.429413cm" x2="15.016813cm" y2="51.556604cm" style="stroke:rgb(255,0,0);stroke-width:1mm" />
<line x1="15.550884cm" y1="31.268704cm" x2="15.268140cm" y2="41.429413cm" style="stroke:rgb(255,0,0);stroke-width:1mm" />
<line x1="15.904313cm" y1="21.018704cm" x2="15.550884cm" y2="31.268704cm" style="stroke:rgb(255,0,0);stroke-width:1mm" />
<line x1="16.375552cm" y1="10.578398cm" x2="15.904313cm" y2="21.018704cm" style="stroke:rgb(255,0,0);stroke-width:1mm" />
<line x1="16.917476cm" y1="0.000000cm" x2="16.375552cm" y2="10.578398cm" style="stroke:rgb(255,0,0);stroke-width:1mm" />
<line x1="21.284290cm" y1="0.000000cm" x2="16.917476cm" y2="0.000000cm" style="stroke:rgb(255,0,0);stroke-width:1mm" />
<line x1="21.826215cm" y1="10.578398cm" x2="21.284290cm" y2="0.000000cm" style="stroke:rgb(255,0,0);stroke-width:1mm" />
<line x1="22.297454cm" y1="21.018704cm" x2="21.826215cm" y2="10.578398cm" style="stroke:rgb(255,0,0);stroke-width:1mm" />
<line x1="22.650883cm" y1="31.268704cm" x2="22.297454cm" y2="21.018704cm" style="stroke:rgb(255,0,0);stroke-width:1mm" />
<line x1="22.933626cm" y1="41.429413cm" x2="22.650883cm" y2="31.268704cm" style="stroke:rgb(255,0,0);stroke-width:1mm" />
<line x1="23.184954cm" y1="51.556604cm" x2="22.933626cm" y2="41.429413cm" style="stroke:rgb(255,0,0);stroke-width:1mm" />
<line x1="23.357741cm" y1="61.616922cm" x2="23.184954cm" y2="51.556604cm" style="stroke:rgb(255,0,0);stroke-width:1mm" />
<line x1="23.530529cm" y1="71.677240cm" x2="23.357741cm" y2="61.616922cm" style="stroke:rgb(255,0,0);stroke-width:1mm" />
<line x1="23.671901cm" y1="81.717659cm" x2="23.530529cm" y2="71.677240cm" style="stroke:rgb(255,0,0);stroke-width:1mm" />
<line x1="23.766148cm" y1="91.735642cm" x2="23.671901cm" y2="81.717659cm" style="stroke:rgb(255,0,0);stroke-width:1mm" />
<line x1="23.813272cm" y1="101.740141cm" x2="23.766148cm" y2="91.735642cm" style="stroke:rgb(255,0,0);stroke-width:1mm" />
<line x1="23.876104cm" y1="111.748138cm" x2="23.813272cm" y2="101.740141cm" style="stroke:rgb(255,0,0);stroke-width:1mm" />
<line x1="23.860396cm" y1="121.748638cm" x2="23.876104cm" y2="111.748138cm" style="stroke:rgb(255,0,0);stroke-width:1mm" />
<line x1="23.781856cm" y1="131.761130cm" x2="23.860396cm" y2="121.748638cm" style="stroke:rgb(255,0,0);stroke-width:1mm" />
<line x1="23.624777cm" y1="143.304527cm" x2="23.781856cm" y2="131.761130cm" style="stroke:rgb(255,0,0);stroke-width:1mm" />
<line x1="23.514821cm" y1="148.353289cm" x2="23.624777cm" y2="143.304527cm" style="stroke:rgb(255,0,0);stroke-width:1mm" />
<line x1="23.373449cm" y1="153.433643cm" x2="23.514821cm" y2="148.353289cm" style="stroke:rgb(255,0,0);stroke-width:1mm" />
<line x1="23.184954cm" y1="158.575627cm" x2="23.373449cm" y2="153.433643cm" style="stroke:rgb(255,0,0);stroke-width:1mm" />
<line x1="23.012166cm" y1="162.244415cm" x2="23.184954cm" y2="158.575627cm" style="stroke:rgb(255,0,0);stroke-width:1mm" />
<line x1="22.807963cm" y1="164.229358cm" x2="23.012166cm" y2="162.244415cm" style="stroke:rgb(255,0,0);stroke-width:1mm" />
<line x1="24.944246cm" y1="164.229358cm" x2="22.807963cm" y2="164.229358cm" style="stroke:rgb(255,0,0);stroke-width:1mm" />
<line x1="24.740042cm" y1="162.244415cm" x2="24.944246cm" y2="164.229358cm" style="stroke:rgb(255,0,0);stroke-width:1mm" />
<line x1="24.567255cm" y1="158.575627cm" x2="24.740042cm" y2="162.244415cm" style="stroke:rgb(255,0,0);stroke-width:1mm" />
<line x1="24.378759cm" y1="153.433643cm" x2="24.567255cm" y2="158.575627cm" style="stroke:rgb(255,0,0);stroke-width:1mm" />
<line x1="24.237387cm" y1="148.353289cm" x2="24.378759cm" y2="153.433643cm" style="stroke:rgb(255,0,0);stroke-width:1mm" />
<line x1="24.127432cm" y1="143.304527cm" x2="24.237387cm" y2="148.353289cm" style="stroke:rgb(255,0,0);stroke-width:1mm" />
<line x1="23.970352cm" y1="131.761130cm" x2="24.127432cm" y2="143.304527cm" style="stroke:rgb(255,0,0);stroke-width:1mm" />
<line x1="23.891812cm" y1="121.748638cm" x2="23.970352cm" y2="131.761130cm" style="stroke:rgb(255,0,0);stroke-width:1mm" />
<line x1="23.876104cm" y1="111.748138cm" x2="23.891812cm" y2="121.748638cm" style="stroke:rgb(255,0,0);stroke-width:1mm" />
<line x1="23.938936cm" y1="101.740141cm" x2="23.876104cm" y2="111.748138cm" style="stroke:rgb(255,0,0);stroke-width:1mm" />
<line x1="23.986060cm" y1="91.735642cm" x2="23.938936cm" y2="101.740141cm" style="stroke:rgb(255,0,0);stroke-width:1mm" />
<line x1="24.080308cm" y1="81.717659cm" x2="23.986060cm" y2="91.735642cm" style="stroke:rgb(255,0,0);stroke-width:1mm" />
<line x1="24.221679cm" y1="71.677240cm" x2="24.080308cm" y2="81.717659cm" style="stroke:rgb(255,0,0);stroke-width:1mm" />
<line x1="24.394467cm" y1="61.616922cm" x2="24.221679cm" y2="71.677240cm" style="stroke:rgb(255,0,0);stroke-width:1mm" />
<line x1="24.567255cm" y1="51.556604cm" x2="24.394467cm" y2="61.616922cm" style="stroke:rgb(255,0,0);stroke-width:1mm" />
<line x1="24.818582cm" y1="41.429413cm" x2="24.567255cm" y2="51.556604cm" style="stroke:rgb(255,0,0);stroke-width:1mm" />
<line x1="25.101325cm" y1="31.268704cm" x2="24.818582cm" y2="41.429413cm" style="stroke:rgb(255,0,0);stroke-width:1mm" />
<line x1="25.454754cm" y1="21.018704cm" x2="25.101325cm" y2="31.268704cm" style="stroke:rgb(255,0,0);stroke-width:1mm" />
<line x1="25.925993cm" y1="10.578398cm" x2="25.454754cm" y2="21.018704cm" style="stroke:rgb(255,0,0);stroke-width:1mm" />
<line x1="26.467918cm" y1="0.000000cm" x2="25.925993cm" y2="10.578398cm" style="stroke:rgb(255,0,0);stroke-width:1mm" />
<line x1="30.834732cm" y1="0.000000cm" x2="26.467918cm" y2="0.000000cm" style="stroke:rgb(255,0,0);stroke-width:1mm" />
<line x1="31.376657cm" y1="10.578398cm" x2="30.834732cm" y2="0.000000cm" style="stroke:rgb(255,0,0);stroke-width:1mm" />
<line x1="31.847896cm" y1="21.018704cm" x2="31.376657cm" y2="10.578398cm" style="stroke:rgb(255,0,0);stroke-width:1mm" />
<line x1="32.201325cm" y1="31.268704cm" x2="31.847896cm" y2="21.018704cm" style="stroke:rgb(255,0,0);stroke-width:1mm" />
<line x1="32.484068cm" y1="41.429413cm" x2="32.201325cm" y2="31.268704cm" style="stroke:rgb(255,0,0);stroke-width:1mm" />
<line x1="32.735395cm" y1="51.556604cm" x2="32.484068cm" y2="41.429413cm" style="stroke:rgb(255,0,0);stroke-width:1mm" />
<line x1="32.908183cm" y1="61.616922cm" x2="32.735395cm" y2="51.556604cm" style="stroke:rgb(255,0,0);stroke-width:1mm" />
<line x1="33.080971cm" y1="71.677240cm" x2="32.908183cm" y2="61.616922cm" style="stroke:rgb(255,0,0);stroke-width:1mm" />
<line x1="33.222342cm" y1="81.717659cm" x2="33.080971cm" y2="71.677240cm" style="stroke:rgb(255,0,0);stroke-width:1mm" />
<line x1="33.316590cm" y1="91.735642cm" x2="33.222342cm" y2="81.717659cm" style="stroke:rgb(255,0,0);stroke-width:1mm" />
<line x1="33.363714cm" y1="101.740141cm" x2="33.316590cm" y2="91.735642cm" style="stroke:rgb(255,0,0);stroke-width:1mm" />
<line x1="33.426546cm" y1="111.748138cm" x2="33.363714cm" y2="101.740141cm" style="stroke:rgb(255,0,0);stroke-width:1mm" />
<line x1="33.410838cm" y1="121.748638cm" x2="33.426546cm" y2="111.748138cm" style="stroke:rgb(255,0,0);stroke-width:1mm" />
<line x1="33.332298cm" y1="131.761130cm" x2="33.410838cm" y2="121.748638cm" style="stroke:rgb(255,0,0);stroke-width:1mm" />
<line x1="33.175218cm" y1="143.304527cm" x2="33.332298cm" y2="131.761130cm" style="stroke:rgb(255,0,0);stroke-width:1mm" />
<line x1="33.065263cm" y1="148.353289cm" x2="33.175218cm" y2="143.304527cm" style="stroke:rgb(255,0,0);stroke-width:1mm" />
<line x1="32.923891cm" y1="153.433643cm" x2="33.065263cm" y2="148.353289cm" style="stroke:rgb(255,0,0);stroke-width:1mm" />
<line x1="32.735395cm" y1="158.575627cm" x2="32.923891cm" y2="153.433643cm" style="stroke:rgb(255,0,0);stroke-width:1mm" />
<line x1="32.562608cm" y1="162.244415cm" x2="32.735395cm" y2="158.575627cm" style="stroke:rgb(255,0,0);stroke-width:1mm" />
<line x1="32.358404cm" y1="164.229358cm" x2="32.562608cm" y2="162.244415cm" style="stroke:rgb(255,0,0);stroke-width:1mm" />
<line x1="34.494687cm" y1="164.229358cm" x2="32.358404cm" y2="164.229358cm" style="stroke:rgb(255,0,0);stroke-width:1mm" />
<line x1="34.290484cm" y1="162.244415cm" x2="34.494687cm" y2="164.229358cm" style="stroke:rgb(255,0,0);stroke-width:1mm" />
<line x1="34.117696cm" y1="158.575627cm" x2="34.290484cm" y2="162.244415cm" style="stroke:rgb(255,0,0);stroke-width:1mm" />
<line x1="33.929201cm" y1="153.433643cm" x2="34.117696cm" y2="158.575627cm" style="stroke:rgb(255,0,0);stroke-width:1mm" />
<line x1="33.787829cm" y1="148.353289cm" x2="33.929201cm" y2="153.433643cm" style="stroke:rgb(255,0,0);stroke-width:1mm" />
<line x1="33.677873cm" y1="143.304527cm" x2="33.787829cm" y2="148.353289cm" style="stroke:rgb(255,0,0);stroke-width:1mm" />
<line x1="33.520794cm" y1="131.761130cm" x2="33.677873cm" y2="143.304527cm" style="stroke:rgb(255,0,0);stroke-width:1mm" />
<line x1="33.442254cm" y1="121.748638cm" x2="33.520794cm" y2="131.761130cm" style="stroke:rgb(255,0,0);stroke-width:1mm" />
<line x1="33.426546cm" y1="111.748138cm" x2="33.442254cm" y2="121.748638cm" style="stroke:rgb(255,0,0);stroke-width:1mm" />
<line x1="33.489378cm" y1="101.740141cm" x2="33.426546cm" y2="111.748138cm" style="stroke:rgb(255,0,0);stroke-width:1mm" />
<line x1="33.536502cm" y1="91.735642cm" x2="33.489378cm" y2="101.740141cm" style="stroke:rgb(255,0,0);stroke-width:1mm" />
<line x1="33.630749cm" y1="81.717659cm" x2="33.536502cm" y2="91.735642cm" style="stroke:rgb(255,0,0);stroke-width:1mm" />
<line x1="33.772121cm" y1="71.677240cm" x2="33.630749cm" y2="81.717659cm" style="stroke:rgb(255,0,0);stroke-width:1mm" />
<line x1="33.944909cm" y1="61.616922cm" x2="33.772121cm" y2="71.677240cm" style="stroke:rgb(255,0,0);stroke-width:1mm" />
<line x1="34.117696cm" y1="51.556604cm" x2="33.944909cm" y2="61.616922cm" style="stroke:rgb(255,0,0);stroke-width:1mm" />
<line x1="34.369024cm" y1="41.429413cm" x2="34.117696cm" y2="51.556604cm" style="stroke:rgb(255,0,0);stroke-width:1mm" />
<line x1="34.651767cm" y1="31.268704cm" x2="34.369024cm" y2="41.429413cm" style="stroke:rgb(255,0,0);stroke-width:1mm" />
<line x1="35.005196cm" y1="21.018704cm" x2="34.651767cm" y2="31.268704cm" style="stroke:rgb(255,0,0);stroke-width:1mm" />
<line x1="35.476435cm" y1="10.578398cm" x2="35.005196cm" y2="21.018704cm" style="stroke:rgb(255,0,0);stroke-width:1mm" />
<line x1="36.018360cm" y1="0.000000cm" x2="35.476435cm" y2="10.578398cm" style="stroke:rgb(255,0,0);stroke-width:1mm" />
<line x1="40.385174cm" y1="0.000000cm" x2="36.018360cm" y2="0.000000cm" style="stroke:rgb(255,0,0);stroke-width:1mm" />
<line x1="40.927098cm" y1="10.578398cm" x2="40.385174cm" y2="0.000000cm" style="stroke:rgb(255,0,0);stroke-width:1mm" />
<line x1="41.398337cm" y1="21.018704cm" x2="40.927098cm" y2="10.578398cm" style="stroke:rgb(255,0,0);stroke-width:1mm" />
<line x1="41.751766cm" y1="31.268704cm" x2="41.398337cm" y2="21.018704cm" style="stroke:rgb(255,0,0);stroke-width:1mm" />
<line x1="42.034510cm" y1="41.429413cm" x2="41.751766cm" y2="31.268704cm" style="stroke:rgb(255,0,0);stroke-width:1mm" />
<line x1="42.285837cm" y1="51.556604cm" x2="42.034510cm" y2="41.429413cm" style="stroke:rgb(255,0,0);stroke-width:1mm" />
<line x1="42.458625cm" y1="61.616922cm" x2="42.285837cm" y2="51.556604cm" style="stroke:rgb(255,0,0);stroke-width:1mm" />
<line x1="42.631412cm" y1="71.677240cm" x2="42.458625cm" y2="61.616922cm" style="stroke:rgb(255,0,0);stroke-width:1mm" />
<line x1="42.772784cm" y1="81.717659cm" x2="42.631412cm" y2="71.677240cm" style="stroke:rgb(255,0,0);stroke-width:1mm" />
<line x1="42.867032cm" y1="91.735642cm" x2="42.772784cm" y2="81.717659cm" style="stroke:rgb(255,0,0);stroke-width:1mm" />
<line x1="42.914156cm" y1="101.740141cm" x2="42.867032cm" y2="91.735642cm" style="stroke:rgb(255,0,0);stroke-width:1mm" />
<line x1="42.976988cm" y1="111.748138cm" x2="42.914156cm" y2="101.740141cm" style="stroke:rgb(255,0,0);stroke-width:1mm" />
<line x1="42.961280cm" y1="121.748638cm" x2="42.976988cm" y2="111.748138cm" style="stroke:rgb(255,0,0);stroke-width:1mm" />
<line x1="42.882740cm" y1="131.761130cm" x2="42.961280cm" y2="121.748638cm" style="stroke:rgb(255,0,0);stroke-width:1mm" />
<line x1="42.725660cm" y1="143.304527cm" x2="42.882740cm" y2="131.761130cm" style="stroke:rgb(255,0,0);stroke-width:1mm" />
<line x1="42.615704cm" y1="148.353289cm" x2="42.725660cm" y2="143.304527cm" style="stroke:rgb(255,0,0);stroke-width:1mm" />
<line x1="42.474333cm" y1="153.433643cm" x2="42.615704cm" y2="148.353289cm" style="stroke:rgb(255,0,0);stroke-width:1mm" />
<line x1="42.285837cm" y1="158.575627cm" x2="42.474333cm" y2="153.433643cm" style="stroke:rgb(255,0,0);stroke-width:1mm" />
<line x1="42.113050cm" y1="162.244415cm" x2="42.285837cm" y2="158.575627cm" style="stroke:rgb(255,0,0);stroke-width:1mm" />
<line x1="41.908846cm" y1="164.229358cm" x2="42.113050cm" y2="162.244415cm" style="stroke:rgb(255,0,0);stroke-width:1mm" />
<line x1="44.045129cm" y1="164.229358cm" x2="41.908846cm" y2="164.229358cm" style="stroke:rgb(255,0,0);stroke-width:1mm" />
<line x1="43.840925cm" y1="162.244415cm" x2="44.045129cm" y2="164.229358cm" style="stroke:rgb(255,0,0);stroke-width:1mm" />
<line x1="43.668138cm" y1="158.575627cm" x2="43.840925cm" y2="162.244415cm" style="stroke:rgb(255,0,0);stroke-width:1mm" />
<line x1="43.479642cm" y1="153.433643cm" x2="43.668138cm" y2="158.575627cm" style="stroke:rgb(255,0,0);stroke-width:1mm" />
<line x1="43.338271cm" y1="148.353289cm" x2="43.479642cm" y2="153.433643cm" style="stroke:rgb(255,0,0);stroke-width:1mm" />
<line x1="43.228315cm" y1="143.304527cm" x2="43.338271cm" y2="148.353289cm" style="stroke:rgb(255,0,0);stroke-width:1mm" />
<line x1="43.071235cm" y1="131.761130cm" x2="43.228315cm" y2="143.304527cm" style="stroke:rgb(255,0,0);stroke-width:1mm" />
<line x1="42.992695cm" y1="121.748638cm" x2="43.071235cm" y2="131.761130cm" style="stroke:rgb(255,0,0);stroke-width:1mm" />
<line x1="42.976988cm" y1="111.748138cm" x2="42.992695cm" y2="121.748638cm" style="stroke:rgb(255,0,0);stroke-width:1mm" />
<line x1="43.039819cm" y1="101.740141cm" x2="42.976988cm" y2="111.748138cm" style="stroke:rgb(255,0,0);stroke-width:1mm" />
<line x1="43.086943cm" y1="91.735642cm" x2="43.039819cm" y2="101.740141cm" style="stroke:rgb(255,0,0);stroke-width:1mm" />
<line x1="43.181191cm" y1="81.717659cm" x2="43.086943cm" y2="91.735642cm" style="stroke:rgb(255,0,0);stroke-width:1mm" />
<line x1="43.322563cm" y1="71.677240cm" x2="43.181191cm" y2="81.717659cm" style="stroke:rgb(255,0,0);stroke-width:1mm" />
<line x1="43.495350cm" y1="61.616922cm" x2="43.322563cm" y2="71.677240cm" style="stroke:rgb(255,0,0);stroke-width:1mm" />
<line x1="43.668138cm" y1="51.556604cm" x2="43.495350cm" y2="61.616922cm" style="stroke:rgb(255,0,0);stroke-width:1mm" />
<line x1="43.919465cm" y1="41.429413cm" x2="43.668138cm" y2="51.556604cm" style="stroke:rgb(255,0,0);stroke-width:1mm" />
<line x1="44.202209cm" y1="31.268704cm" x2="43.919465cm" y2="41.429413cm" style="stroke:rgb(255,0,0);stroke-width:1mm" />
<line x1="44.555638cm" y1="21.018704cm" x2="44.202209cm" y2="31.268704cm" style="stroke:rgb(255,0,0);stroke-width:1mm" />
<line x1="45.026877cm" y1="10.578398cm" x2="44.555638cm" y2="21.018704cm" style="stroke:rgb(255,0,0);stroke-width:1mm" />
<line x1="45.568801cm" y1="0.000000cm" x2="45.026877cm" y2="10.578398cm" style="stroke:rgb(255,0,0);stroke-width:1mm" />
<line x1="47.752208cm" y1="0.000000cm" x2="45.568801cm" y2="0.000000cm" style="stroke:rgb(255,0,0);stroke-width:1mm" />
</svg>
